<?php if ( !isset($_GET['color']) ) $color = 'f3f3f3';
else
{
    // We only want the first six chars of the color parameter.
    $color = substr(htmlspecialchars($_GET['color']), 0, 6);
}
?><svg width="500" height="612" xmlns="http://www.w3.org/2000/svg">
 <g>
  <title>Media Center logo</title>
  <g id="svg_1">
   <g id="svg_2">
    <polygon id="svg_3" points="    25.583,36.903 25.583,69.08 45.415,57.689 66.406,69.08 66.406,36.903 45.415,50.197   " stroke-miterlimit="10" stroke-linejoin="round" stroke-linecap="round" stroke-width="1.1127" stroke="#<?php echo $color; ?>" fill="#<?php echo $color; ?>"/>
    <polygon id="svg_4" points="    13.886,72.524 13.864,32.121 45.415,14.737 76.978,32.083 76.978,72.524 88.724,72.524 88.724,26.42 45.415,1.285 2.073,25.76     2.121,72.524   " stroke-miterlimit="10" stroke-linejoin="round" stroke-linecap="round" stroke-width="0.9369" stroke="#<?php echo $color; ?>" fill="#<?php echo $color; ?>"/>
    <polygon id="svg_5" points="    76.909,33.162 76.931,73.566 45.383,90.951 13.819,73.604 13.819,33.162 2.073,33.162 2.073,79.266 45.383,104.404 88.724,79.927     88.676,33.162   " stroke-miterlimit="10" stroke-linejoin="round" stroke-linecap="round" stroke-width="0.9369" stroke="#<?php echo $color; ?>" fill="#<?php echo $color; ?>"/>
   </g>
   <g id="svg_6">
    <path id="svg_7" d="m149.51199,40.43c0.088,0.356 0.133,0.676 0.133,0.961v2.723v21.785v4.646c0,0.285 -0.09799,0.525 -0.293,0.72c-0.196,0.197 -0.437,0.294 -0.72099,0.294h-7.42201c-0.28499,0 -0.517,-0.097 -0.694,-0.294c-0.17799,-0.195 -0.267,-0.435 -0.267,-0.72v-7.315v-13.83v-6.14h-5.98v6.78v16.5v4.005c0,0.285 -0.089,0.525 -0.267,0.72c-0.179,0.197 -0.41,0.294 -0.694,0.294h-6.728c-0.285,0 -0.52499,-0.097 -0.71999,-0.294c-0.19701,-0.195 -0.29401,-0.435 -0.29401,-0.72v-4.752v-17.248v-5.285h-5.98v9.184v13.028v5.073c0,0.676 -0.33801,1.014 -1.014,1.014h-7.369c-0.677,0 -1.014,-0.338 -1.014,-1.014v-7.476v-23.28v-4.591c0,-0.284 0.097,-0.525 0.294,-0.72c0.195,-0.196 0.43501,-0.294 0.72,-0.294h3.097h25.41601h2.67c0.284,0 0.614,0.044 0.98799,0.133s0.685,0.187 0.93401,0.293l4.91299,4.913c0.10501,0.249 0.20302,0.552 0.29201,0.907z" fill="#<?php echo $color; ?>"/>
    <path id="svg_8" d="m164.64799,43.153v5.82c0,0.143 0.088,0.214 0.267,0.214h4.539h4.912h5.767c0.285,0 0.52501,0.098 0.72101,0.293c0.19499,0.195 0.293,0.437 0.293,0.721v5.339c0,0.677 -0.338,1.016 -1.015,1.016h-5.39301h-4.272h-5.55299c-0.179,0 -0.267,0.088 -0.267,0.266v5.767c0,0.178 0.088,0.267 0.267,0.267h4.271h6.034h7.582c0.285,0 0.52501,0.098 0.72101,0.294c0.19499,0.196 0.293,0.435 0.293,0.72v6.675c0,0.285 -0.09801,0.525 -0.293,0.72c-0.196,0.197 -0.437,0.294 -0.72101,0.294h-5.713h-12.97501h-1.655c-0.286,0 -0.605,-0.035 -0.961,-0.10699c-0.356,-0.07101 -0.66,-0.177 -0.908,-0.32l-4.91299,-4.913c-0.14301,-0.25 -0.24901,-0.551 -0.32001,-0.909c-0.07199,-0.355 -0.10699,-0.675 -0.10699,-0.96v-1.656v-18.046v-3.257c0,-0.285 0.036,-0.605 0.10699,-0.961c0.071,-0.355 0.177,-0.658 0.32001,-0.908l4.91299,-4.913c0.248,-0.106 0.55099,-0.205 0.908,-0.293c0.355,-0.089 0.675,-0.133 0.961,-0.133h1.282h14.78999h4.27101c0.28499,0 0.52499,0.098 0.72099,0.294c0.19501,0.195 0.293,0.436 0.293,0.72v6.728c0,0.285 -0.09799,0.517 -0.293,0.694c-0.196,0.178 -0.437,0.267 -0.72099,0.267h-4.11101h-8.48999h-5.28601c-0.17799,0 -0.26599,0.089 -0.26599,0.267z" fill="#<?php echo $color; ?>"/>
    <path id="svg_9" d="m220.604,39.522c0.108,0.25 0.205,0.553 0.29399,0.908c0.088,0.356 0.134,0.676 0.134,0.961v1.869v19.648v1.442c0,0.285 -0.045,0.605 -0.134,0.96c-0.08899,0.357 -0.18599,0.659 -0.29399,0.909l-4.91101,4.913c-0.25,0.143 -0.56099,0.24899 -0.935,0.32c-0.37399,0.072 -0.70399,0.10699 -0.98799,0.10699h-2.136h-17.246h-3.73801c-0.67699,0 -1.01399,-0.338 -1.01399,-1.014v-4.539v-26.377v-4.432c0,-0.284 0.097,-0.525 0.293,-0.72c0.19499,-0.196 0.436,-0.294 0.72099,-0.294h3.31001h15.21799h4.591c0.284,0 0.614,0.044 0.98801,0.133s0.68599,0.187 0.935,0.293l4.912,4.913zm-16.979,3.738h-4.592v5.446v9.558v4.271h4.806h2.616h5.12599v-3.951v-9.558v-5.766h-5.07199h-2.884l0,0z" fill="#<?php echo $color; ?>"/>
    <path id="svg_10" d="m236.14301,70.545c0,0.676 -0.339,1.014 -1.015,1.014h-7.36801c-0.677,0 -1.015,-0.338 -1.015,-1.014v-35.348c0,-0.676 0.338,-1.014 1.015,-1.014h7.36801c0.67599,0 1.015,0.338 1.015,1.014v35.348l0,0z" fill="#<?php echo $color; ?>"/>
    <path id="svg_11" d="m272.76999,39.469c0.108,0.249 0.20502,0.561 0.29401,0.935c0.08902,0.373 0.133,0.703 0.133,0.988v0.587v0.481v28.085c0,0.285 -0.09698,0.517 -0.293,0.694c-0.194,0.179 -0.436,0.266 -0.72098,0.266h-7.42102c-0.285,0 -0.517,-0.087 -0.694,-0.266c-0.17899,-0.177 -0.26801,-0.409 -0.26801,-0.694v-9.612c0,-0.284 -0.09799,-0.515 -0.293,-0.694c-0.19699,-0.178 -0.43698,-0.267 -0.72098,-0.267h-10.57301c-0.285,0 -0.524,0.089 -0.72099,0.267c-0.19501,0.179 -0.293,0.41 -0.293,0.694v9.612c0,0.285 -0.089,0.517 -0.26801,0.694c-0.179,0.179 -0.409,0.266 -0.694,0.266h-7.422c-0.285,0 -0.52501,-0.087 -0.72,-0.266c-0.19701,-0.177 -0.29401,-0.409 -0.29401,-0.694v-28.3v-0.854v-0.16c0.035,-0.284 0.08801,-0.587 0.16,-0.908s0.161,-0.605 0.267,-0.854l4.91301,-4.913c0.24899,-0.107 0.55199,-0.204 0.90799,-0.293c0.356,-0.088 0.67601,-0.133 0.961,-0.133h0.80101h3.043h10.892h1.603h0.58801c0.284,0 0.61298,0.045 0.987,0.133c0.37299,0.089 0.685,0.187 0.935,0.293l4.91098,4.913zm-8.97,3.043h-12.60098v9.451h12.60098v-9.451l0,0z" fill="#<?php echo $color; ?>"/>
    <path id="svg_12" d="m303.979,43.526c-0.19699,0.179 -0.29401,0.41 -0.29401,0.694v17.3c0,0.286 0.09702,0.526 0.29401,0.721c0.194,0.196 0.435,0.293 0.72,0.293h17.13998c0.28302,0 0.52402,0.09 0.72101,0.268c0.194,0.178 0.29401,0.41 0.29401,0.694v7.049c0,0.285 -0.10001,0.525 -0.29401,0.72c-0.19598,0.197 -0.43799,0.294 -0.72101,0.294h-16.392h-3.258h-0.69299c-0.285,0 -0.60501,-0.035 -0.961,-0.10699c-0.35699,-0.07101 -0.659,-0.177 -0.90799,-0.32l-4.91302,-4.913c-0.142,-0.25 -0.24899,-0.551 -0.31799,-0.909c-0.07199,-0.355 -0.108,-0.675 -0.108,-0.96v-0.32v-5.66v-12.707v-2.83v-1.441c0,-0.285 0.03601,-0.605 0.108,-0.961c0.069,-0.355 0.177,-0.658 0.31799,-0.908l4.91302,-4.913c0.24899,-0.106 0.50699,-0.205 0.77499,-0.293c0.26599,-0.089 0.47098,-0.133 0.612,-0.133h0.48099h0.69299h0.21402h0.10699h1.228h18.10101c0.28299,0 0.52399,0.098 0.72098,0.294c0.194,0.195 0.29401,0.436 0.29401,0.72v7.048c0,0.285 -0.10001,0.526 -0.29401,0.721c-0.19598,0.196 -0.43799,0.294 -0.72098,0.294h-17.14001c-0.284,-0.001 -0.52399,0.088 -0.71899,0.265z" fill="#<?php echo $color; ?>"/>
    <path id="svg_13" d="m337.91,43.153v5.82c0,0.143 0.08899,0.214 0.26801,0.214h4.539h4.91199h5.767c0.28299,0 0.52301,0.098 0.72,0.293c0.194,0.195 0.29401,0.437 0.29401,0.721v5.339c0,0.677 -0.33801,1.016 -1.01401,1.016h-5.39499h-4.271h-5.55301c-0.17902,0 -0.26801,0.088 -0.26801,0.266v5.767c0,0.178 0.08899,0.267 0.26801,0.267h4.271h6.034h7.58099c0.285,0 0.526,0.098 0.72302,0.294c0.194,0.196 0.29199,0.435 0.29199,0.72v6.675c0,0.285 -0.09799,0.525 -0.29199,0.72c-0.19601,0.197 -0.43802,0.294 -0.72302,0.294h-5.71298h-12.974h-1.65601c-0.285,0 -0.60599,-0.035 -0.961,-0.10699c-0.35501,-0.07101 -0.659,-0.177 -0.90601,-0.32l-4.91299,-4.913c-0.14401,-0.25 -0.24899,-0.551 -0.32101,-0.909c-0.07098,-0.355 -0.10498,-0.675 -0.10498,-0.96v-1.656v-18.046v-3.257c0,-0.285 0.034,-0.605 0.10498,-0.961c0.07202,-0.355 0.17801,-0.658 0.32101,-0.908l4.91299,-4.913c0.24701,-0.106 0.55099,-0.205 0.90601,-0.293c0.354,-0.089 0.67599,-0.133 0.961,-0.133h1.28299h14.79001h4.26999c0.285,0 0.526,0.098 0.72302,0.294c0.194,0.195 0.29199,0.436 0.29199,0.72v6.728c0,0.285 -0.09799,0.517 -0.29199,0.694c-0.19601,0.178 -0.43802,0.267 -0.72302,0.267h-4.11099h-8.48898h-5.285c-0.17902,0 -0.26801,0.089 -0.26801,0.267z" fill="#<?php echo $color; ?>"/>
    <path id="svg_14" d="m394.16101,40.43c0.08899,0.356 0.133,0.676 0.133,0.961v2.296v21.519v5.339c0,0.285 -0.09698,0.525 -0.29401,0.72c-0.19598,0.197 -0.435,0.294 -0.72,0.294h-7.42297c-0.285,0 -0.52402,-0.097 -0.72101,-0.294c-0.19601,-0.195 -0.29401,-0.435 -0.29401,-0.72v-5.339v-12.229v-8.756c0,-0.285 -0.08801,-0.516 -0.26599,-0.694c-0.18002,-0.177 -0.41,-0.266 -0.69501,-0.266h-10.57001c-0.285,0 -0.526,0.089 -0.72101,0.266c-0.19598,0.179 -0.29398,0.41 -0.29398,0.694v4.699v15.59v6.035c0,0.676 -0.34,1.014 -1.017,1.014h-7.367c-0.67599,0 -1.01501,-0.338 -1.01501,-1.014v-5.393v-19.17v-10.785c0,-0.284 0.09799,-0.525 0.29401,-0.72c0.194,-0.196 0.436,-0.294 0.72101,-0.294h9.185h11.05301h2.88199c0.285,0 0.61499,0.044 0.98898,0.133c0.37302,0.089 0.68402,0.187 0.93402,0.293l4.91199,4.913c0.108,0.25 0.20499,0.553 0.29401,0.908z" fill="#<?php echo $color; ?>"/>
    <path id="svg_15" d="m426.48999,42.245c0,0.285 -0.09998,0.526 -0.29398,0.721c-0.19601,0.196 -0.43802,0.294 -0.72101,0.294h-7.58301c-0.285,0 -0.52301,0.089 -0.72101,0.266c-0.19598,0.179 -0.293,0.41 -0.293,0.694v26.324c0,0.285 -0.08899,0.525 -0.267,0.72c-0.17999,0.197 -0.41,0.294 -0.69501,0.294h-7.41998c-0.285,0 -0.526,-0.097 -0.72101,-0.294c-0.19598,-0.195 -0.29401,-0.435 -0.29401,-0.72v-26.323c0,-0.285 -0.09097,-0.516 -0.26797,-0.694c-0.17801,-0.177 -0.41,-0.266 -0.69302,-0.266h-7.58298c-0.285,0 -0.526,-0.098 -0.72101,-0.294c-0.19601,-0.195 -0.29401,-0.436 -0.29401,-0.721v-7.048c0,-0.676 0.33801,-1.014 1.01501,-1.014h7.58298h1.97601h7.41998h1.97601h7.58301c0.28299,0 0.52399,0.098 0.72101,0.294c0.194,0.195 0.29398,0.436 0.29398,0.72v7.047l0,0z" fill="#<?php echo $color; ?>"/>
    <path id="svg_16" d="m439.465,43.153v5.82c0,0.143 0.08899,0.214 0.267,0.214h4.53799h4.91302h5.76599c0.285,0 0.526,0.098 0.72101,0.293c0.19598,0.195 0.29398,0.437 0.29398,0.721v5.339c0,0.677 -0.33798,1.016 -1.01498,1.016h-5.392h-4.272h-5.55301c-0.17801,0 -0.267,0.088 -0.267,0.266v5.767c0,0.178 0.08899,0.267 0.267,0.267h4.272h6.03201h7.58298c0.28302,0 0.52402,0.098 0.72101,0.294c0.194,0.196 0.29401,0.435 0.29401,0.72v6.675c0,0.285 -0.10001,0.525 -0.29401,0.72c-0.19598,0.197 -0.43799,0.294 -0.72101,0.294h-5.71298h-12.97601h-1.65399c-0.285,0 -0.60599,-0.035 -0.961,-0.10699c-0.35699,-0.07101 -0.659,-0.177 -0.909,-0.32l-4.91202,-4.913c-0.142,-0.25 -0.24899,-0.551 -0.319,-0.909c-0.07098,-0.355 -0.10699,-0.675 -0.10699,-0.96v-1.656v-18.046v-3.257c0,-0.285 0.03601,-0.605 0.10699,-0.961c0.07001,-0.355 0.17801,-0.658 0.319,-0.908l4.91202,-4.913c0.25,-0.106 0.552,-0.205 0.909,-0.293c0.354,-0.089 0.67599,-0.133 0.961,-0.133h1.28h14.79001h4.272c0.28299,0 0.52399,0.098 0.72098,0.294c0.194,0.195 0.29401,0.436 0.29401,0.72v6.728c0,0.285 -0.10001,0.517 -0.29401,0.694c-0.19598,0.178 -0.43799,0.267 -0.72098,0.267h-4.11102h-8.48999h-5.28601c-0.177,0 -0.26599,0.089 -0.26599,0.267z" fill="#<?php echo $color; ?>"/>
    <path id="svg_17" d="m496.48999,70.704c0.142,0.25 0.16,0.45499 0.05301,0.615c-0.10599,0.159 -0.30301,0.24 -0.58801,0.24h-8.48898c-0.285,0 -0.57001,-0.081 -0.854,-0.24c-0.285,-0.161 -0.49899,-0.366 -0.64099,-0.615l-5.98102,-10.144c-0.07098,-0.142 -0.19598,-0.214 -0.37399,-0.214h-6.03198c-0.18002,0 -0.26901,0.09 -0.26901,0.268v9.932c0,0.676 -0.33801,1.014 -1.01401,1.014h-7.36798c-0.67603,0 -1.01401,-0.338 -1.01401,-1.014v-17.408v-9.131v-8.81c0,-0.284 0.09698,-0.525 0.29401,-0.72c0.194,-0.196 0.435,-0.294 0.72,-0.294h23.11899c0.285,0 0.61499,0.044 0.98898,0.133s0.68503,0.187 0.93402,0.293l4.91299,4.913c0.10501,0.25 0.20401,0.553 0.293,0.908c0.08899,0.356 0.134,0.676 0.134,0.961v7.209v3.897v0.535c0,0.213 -0.05301,0.472 -0.16101,0.774c-0.10498,0.302 -0.23199,0.579 -0.37399,0.827l-4.91199,5.019l6.62198,11.052zm-10.62598,-27.818h-12.923v9.077h6.14301h5.65799h0.16h0.96201v-0.694v-6.033v-2.35l0,0z" fill="#<?php echo $color; ?>"/>
   </g>
  </g>
 </g>
</svg>
