<svg width="67" height="67" xmlns="http://www.w3.org/2000/svg">
 <g>
  <title>Twitter</title>
  <path d="m39.246,15.921c-4.104,1.493 -6.697,5.345 -6.402,9.561l0.098,1.627l-1.642,-0.199c-5.976,-0.763 -11.198,-3.352 -15.631,-7.703l-2.168,-2.158l-0.558,1.594c-1.181,3.555 -0.426,7.305 2.037,9.828c1.313,1.395 1.017,1.594 -1.248,0.763c-0.789,-0.265 -1.478,-0.463 -1.544,-0.365c-0.229,0.233 0.558,3.253 1.181,4.449c0.855,1.66 2.595,3.288 4.5,4.25l1.61,0.763l-1.905,0.032c-1.838,0 -1.904,0.034 -1.707,0.732c0.657,2.159 3.251,4.45 6.14,5.446l2.036,0.696l-1.772,1.063c-2.627,1.531 -5.714,2.388 -8.802,2.456c-1.479,0.033 -2.693,0.166 -2.693,0.266c0,0.332 4.007,2.188 6.337,2.921c6.994,2.157 15.304,1.227 21.542,-2.455c4.434,-2.624 8.865,-7.836 10.935,-12.883c1.117,-2.689 2.234,-7.605 2.234,-9.959c0,-1.528 0.099,-1.727 1.938,-3.553c1.084,-1.063 2.1,-2.224 2.299,-2.556c0.327,-0.631 0.295,-0.631 -1.38,-0.068c-2.792,0.998 -3.187,0.865 -1.806,-0.628c1.019,-1.063 2.235,-2.989 2.235,-3.555c0,-0.097 -0.491,0.066 -1.052,0.366c-0.591,0.332 -1.906,0.83 -2.893,1.128l-1.772,0.566l-1.606,-1.097c-0.888,-0.597 -2.134,-1.261 -2.792,-1.46c-1.676,-0.465 -4.237,-0.399 -5.749,0.132zm-39.246,-15.921h67v67h-67v-67l0,0z" fill="#598DCA" id="svg_1"/>
 </g>
</svg>