<svg width="67" height="67" xmlns="http://www.w3.org/2000/svg">
 <linearGradient y2="1.00001" x2="0.49999" y1="0.00001" x1="0.49999" id="SVGID_1_">
  <stop stop-color="#D32D20" offset="0"/>
  <stop stop-color="#D32D20" offset="1"/>
 </linearGradient>
 <g>
  <title>StumbleUpon</title>
  <rect id="svg_1" height="67" width="67" fill="url(#SVGID_1_)" y="0"/>
  <path id="svg_2" d="m9.392,34.421h7.987v6.832c0,0 -0.094,2.495 2.64,2.495c3.016,0 2.64,-2.403 2.64,-2.403v-15.645c0,0 0.044,-10.697 10.838,-10.697c10.792,0 10.65,9.99 10.65,9.99v3.818l-4.901,1.602l-3.348,-1.555v-3.298c0,0 0.097,-2.264 -2.402,-2.264c-2.499,0 -2.592,1.837 -2.592,2.264c0,0.425 0,16.305 0,16.305s-0.379,10.132 -10.604,10.132c-10.227,0 -10.909,-9.518 -10.909,-10.695c0.001,-1.181 0.001,-6.881 0.001,-6.881z" fill="#FFFFFF"/>
  <path id="svg_3" d="m35.898,34.515l3.348,1.555l4.902,-1.604v7.071c0,0 -0.047,2.308 2.544,2.308s2.684,-2.308 2.684,-2.308v-7.071h8.155v8.014c0,0 0.425,9.518 -10.603,9.518c-11.452,0 -11.03,-9.99 -11.03,-9.99v-7.493l0,0z" fill="#FFFFFF"/>
 </g>
</svg>