<svg width="67" height="67" xmlns="http://www.w3.org/2000/svg">
 <linearGradient y2="0.00001" x2="0.50001" y1="1" x1="0.50001" id="SVGID_1_">
  <stop stop-color="#FFFFFF" offset="0"/>
  <stop stop-color="#EAEAEA" offset="1"/>
 </linearGradient>
 <g>
  <title>GitHub</title>
  <rect id="svg_22" height="67" width="67" fill="url(#SVGID_1_)"/>
  <path id="svg_23" d="m37.902,39.979c0,0 2.135,7.11 8.392,5.689c6.26,-1.423 6.687,-9.389 2.989,-13.512c-3.7,-4.125 -13.229,2.417 -11.381,7.823z" fill="none"/>
  <path id="svg_24" d="m15.615,23.64c0,0 -4.698,4.915 -3.881,12.912c0.815,7.999 5.88,14.599 22.768,14.599c16.886,0 21.134,-8.814 21.233,-16.065c0.1,-7.246 -3.164,-10.478 -4.697,-11.578c0,0 0.009,-5.203 -0.482,-7.953c0,0 -2.598,-0.307 -8.21,2.908c0,0 -7.661,-0.748 -17.871,0.091c0,0 -4.289,-2.865 -8.609,-3.616c-0.001,0 -0.718,4.512 -0.251,8.702z"/>
  <path id="svg_25" d="m23.176,31.557h20.953c0,0 5.938,-0.667 5.938,9.046c0.048,8.549 -15.646,7.997 -15.646,7.997s-17.188,0.683 -17.198,-8.806c-0.024,-8.569 5.953,-8.237 5.953,-8.237z" fill="#E2B89F"/>
  <g id="svg_26">
   <g id="svg_27">
    <path id="svg_28" d="m42.219,35.457c1.347,0 2.44,1.755 2.44,3.914c0,2.165 -1.094,3.917 -2.44,3.917c-1.346,0 -2.438,-1.752 -2.438,-3.917c-0.002,-2.159 1.092,-3.914 2.438,-3.914z" fill="#9C584F"/>
    <path id="svg_29" d="m42.219,43.99c-1.762,0 -3.142,-2.029 -3.142,-4.619c0,-2.589 1.38,-4.617 3.142,-4.617c1.763,0 3.143,2.028 3.143,4.617c-0.001,2.59 -1.382,4.619 -3.143,4.619zm0,-7.831c-0.822,0 -1.736,1.318 -1.736,3.212c0,1.896 0.914,3.215 1.736,3.215s1.737,-1.319 1.737,-3.215c0,-1.893 -0.915,-3.212 -1.737,-3.212z" fill="#FFFFFF"/>
   </g>
  </g>
  <g id="svg_30">
   <g id="svg_31">
    <path id="svg_32" d="m25.362,35.457c1.347,0 2.439,1.755 2.439,3.914c0,2.165 -1.092,3.917 -2.439,3.917c-1.346,0 -2.439,-1.752 -2.439,-3.917c-0.001,-2.159 1.093,-3.914 2.439,-3.914z" fill="#9C584F"/>
    <path id="svg_33" d="m25.362,43.99c-1.761,0 -3.141,-2.029 -3.141,-4.619c0,-2.589 1.379,-4.617 3.141,-4.617s3.143,2.028 3.143,4.617c-0.001,2.59 -1.382,4.619 -3.143,4.619zm0,-7.831c-0.822,0 -1.736,1.318 -1.736,3.212c0,1.896 0.914,3.215 1.736,3.215c0.822,0 1.738,-1.319 1.738,-3.215c0,-1.893 -0.916,-3.212 -1.738,-3.212z" fill="#FFFFFF"/>
   </g>
  </g>
  <path id="svg_34" d="m32.819,44.046c0,0 0.701,-1.992 1.558,-0.126c0,0 -0.643,0.417 -0.399,1.399l2.005,0.768h-4.537l1.797,-0.809c0,0 0.259,-1.483 -0.424,-1.232z" fill="#9C584F"/>
 </g>
</svg>