<svg width="67" height="67" xmlns="http://www.w3.org/2000/svg">
 <g>
  <title>Pinterest</title>
  <g id="svg_1">
   <linearGradient y2="0.5" x2="1" y1="0.5" x1="0" id="SVGID_1_">
    <stop stop-color="#F93C2D" offset="0"/>
    <stop stop-color="#EF4030" offset="0.6887"/>
   </linearGradient>
   <rect id="svg_2" height="66.941" width="66.942" fill="url(#SVGID_1_)" x="0.058"/>
   <g id="krecRE_1_">
    <g id="svg_3">
     <g id="svg_4">
      <path id="svg_5" d="m25.016,54.353c-10.194,-4.129 -15.369,-16.669 -11.311,-27.159c4.231,-10.936 16.408,-16.506 27.371,-12.523c11.145,4.05 16.829,15.999 12.987,27.296c-3.581,10.535 -15.712,16.791 -25.907,13.503c1.122,-3.399 2.242,-6.797 3.346,-10.139c3.276,2.985 7.621,3.088 11.423,0.174c4.701,-3.604 6.791,-11.97 4.28,-17.352c-2.021,-4.332 -5.559,-6.771 -10.199,-7.378c-6.125,-0.8 -11.537,0.745 -15.332,5.949c-2.731,3.747 -3.301,7.9 -1.388,12.24c0.607,1.379 1.639,2.405 2.994,3.09c0.793,0.402 1.29,0.223 1.57,-0.671c0.375,-1.199 0.356,-2.178 -0.417,-3.355c-1.605,-2.447 -1.158,-5.131 -0.094,-7.675c2.519,-6.019 11.182,-8.144 16.029,-3.984c1.595,1.368 2.391,3.153 2.526,5.184c0.204,3.078 -0.272,6.056 -1.755,8.81c-0.88,1.635 -2.088,2.914 -3.971,3.371c-2.859,0.691 -4.982,-1.379 -4.289,-4.23c0.467,-1.915 1.062,-3.799 1.572,-5.703c0.132,-0.489 0.201,-1.006 0.223,-1.513c0.062,-1.462 -0.624,-2.699 -1.719,-3.177c-1.179,-0.514 -2.723,-0.177 -3.715,0.905c-1.811,1.978 -1.9,4.307 -1.37,6.794c0.174,0.812 0.198,1.727 0.023,2.537c-0.813,3.786 -1.76,7.541 -2.569,11.328c-0.249,1.161 -0.207,2.383 -0.308,3.678z" fill="#FFFFFF"/>
     </g>
    </g>
   </g>
  </g>
 </g>
</svg>