<svg width="67" height="67" xmlns="http://www.w3.org/2000/svg">
 <linearGradient gradientTransform="matrix(53.1254 0 0 53.1254 6901.043 -1457.0508)" y2="0.42826" x2="-1.9294" y1="0.40943" x1="-1.9294" id="SVGID_1_">
  <stop stop-color="#F93C2D" offset="0"/>
  <stop stop-color="#F93C2D" offset="1"/>
 </linearGradient>
 <g>
  <title>Git</title>
  <path id="svg_19" d="m0,0h67v66.988h-67" fill="url(#SVGID_1_)"/>
  <g id="svg_20">
   <path id="svg_21" d="m30.638,8.833l-4.138,3.945l5.729,5.729c0,0 1.847,-0.891 3.915,0.732c1.909,1.496 1.018,4.042 1.018,4.042l5.602,5.379c0,0 2.673,-0.828 4.265,1.24s0.701,4.01 -0.223,4.964c-0.924,0.955 -3.66,1.814 -5.475,-0.032c-1.815,-1.846 -0.858,-4.074 -0.858,-4.074l-5.219,-4.997v13.304c0,0 2.133,0.889 2.133,3.405c0,2.516 -2.324,3.66 -4.074,3.66c-1.75,0 -3.66,-1.528 -3.66,-3.914c0,-2.387 2.418,-3.311 2.418,-3.311v-13.365c0,0 -3.343,-1.463 -2.133,-4.964l-5.761,-5.538l-14.576,14.066c0,0 -3.167,2.372 0.126,5.666c3.294,3.293 21.323,20.59 21.323,20.59s2.323,2.45 4.997,-0.159c2.673,-2.608 21.577,-20.813 21.577,-20.813s2.419,-2.482 0.224,-4.583s-22.31,-21.513 -22.31,-21.513s-1.973,-2.038 -4.9,0.541z" fill="#CD2D20"/>
   <path id="svg_22" d="m30.638,11.888l-4.138,3.945l5.729,5.729c0,0 1.847,-0.891 3.915,0.732c1.909,1.496 1.018,4.042 1.018,4.042l5.602,5.379c0,0 2.673,-0.827 4.265,1.241c1.592,2.068 0.701,4.009 -0.223,4.964c-0.924,0.954 -3.66,1.814 -5.475,-0.032c-1.815,-1.848 -0.858,-4.074 -0.858,-4.074l-5.219,-4.997v13.303c0,0 2.133,0.89 2.133,3.405s-2.324,3.66 -4.074,3.66c-1.75,0 -3.66,-1.527 -3.66,-3.914c0,-2.386 2.418,-3.31 2.418,-3.31v-13.366c0,0 -3.343,-1.464 -2.133,-4.965l-5.761,-5.538l-14.576,14.068c0,0 -3.167,2.372 0.126,5.665c3.293,3.294 21.323,20.592 21.323,20.592s2.323,2.45 4.997,-0.159c2.673,-2.609 21.577,-20.814 21.577,-20.814s2.419,-2.482 0.224,-4.582c-2.195,-2.101 -22.31,-21.514 -22.31,-21.514s-1.973,-2.039 -4.9,0.54z" fill="#FFFFFF"/>
  </g>
 </g>
</svg>