<svg width="67" height="67" xmlns="http://www.w3.org/2000/svg">
 <linearGradient gradientTransform="matrix(53.1254 0 0 53.1254 21496.1367 -11199.6445)" y2="3.16532" x2="-6.02984" y1="3.1465" x1="-6.02984" id="SVGID_1_">
  <stop stop-color="#F5F5F5" offset="0"/>
  <stop stop-color="#EEEEEE" offset="0.2762"/>
  <stop stop-color="#DCDCDC" offset="0.6676"/>
  <stop stop-color="#D2D2D2" offset="0.8292"/>
 </linearGradient>
 <g>
  <title>Email</title>
  <path id="svg_1" d="m67,67c-3.333,0 -4.431,0 -9,0h-49.833c-4.572,0 -4.572,0 -8.167,0l0.057,-66.999c4.693,0 3.65,-0.001 8.221,-0.001h49.666c4.57,0 4.57,0 9.056,0.001v66.999l0,0z" fill="url(#SVGID_1_)"/>
  <path id="svg_2" d="m61.598,62.447c-0.145,-0.182 -0.286,-0.366 -0.422,-0.569c-1.368,-2.072 -2.721,-4.214 -4.083,-6.366c-1.851,-2.619 -3.676,-5.213 -5.893,-7.553c-1.013,-1.068 -1.584,-2.229 -1.815,-3.391c-2.377,-3.274 -4.812,-6.504 -7.398,-9.623c-0.205,-0.25 -0.387,-0.505 -0.553,-0.763c-0.545,-0.553 -1.07,-1.126 -1.635,-1.656c-0.136,-0.125 -0.25,-0.257 -0.372,-0.386c-0.909,0.774 -1.795,1.585 -2.641,2.458c-3.167,3.262 -7.249,2.319 -9.674,-0.231c-0.12,0.002 -0.24,-0.012 -0.362,-0.012c-1.259,1.411 -2.515,2.829 -3.754,4.276c-2.316,2.709 -4.531,5.499 -6.761,8.273c-1.322,2.294 -3.154,4.224 -4.988,6.138c-0.172,0.52 -0.365,1.038 -0.677,1.459c-0.385,0.521 -0.778,1.033 -1.184,1.538c-0.262,0.206 -0.528,0.408 -0.793,0.61c-1.586,2.779 -5.317,7.979 -7.426,10.351c3.75,0.084 4.991,0 7,0h49.833c1.877,0 4.5,0 6.5,0c-0.568,-0.598 -2.592,-3.792 -2.902,-4.553z" opacity="0.05"/>
  <path id="svg_3" d="m5.148,12.312c2.742,2.716 5.528,5.064 8.018,7.93l0.244,0.208l-0.034,0.026c0.323,0.378 0.638,0.77 0.95,1.169c4.607,4.285 10.361,7.681 14.691,12.349c1.133,1.222 2.65,2.833 3.962,4.628c0.315,-1.032 0.951,-2.047 1.984,-2.969c6.597,-5.886 13.092,-11.9 19.603,-17.878c3.618,-3.324 8.149,-7.92 12.435,-10.61c0,-5.083 0,-3.667 0,-7.166h-66.944c-0.013,2.091 0,3.217 0,7.341c1.784,1.44 3.255,3.152 5.091,4.972z" fill="#FFFFFF" opacity="0.4"/>
  <polygon id="svg_4" points="0.044,7.427 33.053,35.875 66.179,7.427 33.053,40.423 " fill="#BCBCBC"/>
  <polygon id="svg_5" points="63.004,64.564 38.841,34.205 41.303,31.917 " fill="#BCBCBC"/>
  <polygon id="svg_6" points="3.127,64.564 27.568,34.29 25.28,31.917 " fill="#BCBCBC"/>
 </g>
</svg>