<svg width="67" height="67" xmlns="http://www.w3.org/2000/svg">
 <linearGradient gradientTransform="matrix(53.1254 0 0 53.1254 6901.043 -1457.0508)" y2="0.42818" x2="-1.93094" y1="0.40936" x1="-1.93094" id="SVGID_1_">
  <stop stop-color="#3EABBA" offset="0"/>
  <stop stop-color="#3EAAB8" offset="0"/>
  <stop stop-color="#3EABBA" offset="1"/>
 </linearGradient>
 <g>
  <title>Layer 1</title>
  <path id="svg_34" d="m66.944,67h-66.889l0.085,-67h66.89l-0.086,67z" fill="url(#SVGID_1_)"/>
  <path id="svg_35" d="m19.976,13.381c0,0 -0.905,0.411 -0.905,1.871c0,1.46 0,33.953 0,33.953s-0.089,1.416 1.358,1.779l18.312,-18.39l-18.765,-19.213z" fill="#2F7C73"/>
  <polygon id="svg_36" points="40.135,31.404 45.069,26.297 22.101,13.152 " fill="#2F7C73"/>
  <path id="svg_37" d="m46.476,27.235l6.326,3.306c0,0 1.176,0.639 1.176,1.506c0,0.868 -0.679,1.507 -1.131,1.78c-0.453,0.274 -6.72,3.683 -6.72,3.683l-4.683,-4.726l5.032,-5.549z" fill="#2F7C73"/>
  <polygon id="svg_38" points="40.091,34.191 44.148,38.594 25.013,49.425 " fill="#2F7C73"/>
  <path id="svg_39" d="m19.976,15.124c0,0 -0.905,0.408 -0.905,1.854c0,1.448 0,33.641 0,33.641s-0.089,1.401 1.358,1.763l18.313,-18.222l-18.766,-19.036z" fill="#FFFFFF"/>
  <polygon id="svg_40" points="40.135,32.98 45.069,27.92 22.101,14.897 " fill="#FFFFFF"/>
  <path id="svg_41" d="m46.476,28.85l6.326,3.277c0,0 1.176,0.632 1.176,1.49c0,0.859 -0.679,1.493 -1.131,1.765c-0.453,0.271 -6.72,3.647 -6.72,3.647l-4.683,-4.682l5.032,-5.497z" fill="#FFFFFF"/>
  <polygon id="svg_42" points="40.091,35.743 44.148,40.104 25.013,50.836 " fill="#FFFFFF"/>
 </g>
</svg>