<svg width="67" height="67" xmlns="http://www.w3.org/2000/svg">
 <g>
  <title>Evernote</title>
  <path d="m66.971,66.986l-66.942,0.014v-67l66.942,0.045v66.941l0,0z" fill="#699B22" id="svg_1"/>
  <g id="SMqkte_1_">
   <g id="svg_2">
    <g id="svg_3">
     <path d="m33.668,37.303c-0.373,1.438 -0.816,3.252 -1.312,5.049c-0.284,1.021 -1.01,1.603 -2.065,1.392c-3.935,-0.785 -7.896,-1.496 -11.756,-2.57c-0.914,-0.254 -1.863,-1.719 -2.113,-2.786c-1.007,-4.312 -1.92,-8.663 -2.525,-13.045c-0.444,-3.216 1.081,-4.638 4.363,-4.734c1.287,-0.038 2.578,-0.018 3.866,-0.05c1.388,-0.034 1.885,-0.517 1.914,-1.931c0.032,-1.473 -0.029,-2.946 0,-4.419c0.038,-2.019 0.97,-3.175 2.94,-3.587c2.428,-0.507 4.885,-0.447 7.206,0.37c0.935,0.329 1.822,1.202 2.379,2.058c0.442,0.685 0.808,0.865 1.561,0.931c3.327,0.291 6.669,0.531 9.961,1.072c2.605,0.429 3.729,1.812 3.875,4.391c0.344,6.007 0.908,12.027 0.771,18.027c-0.125,5.425 -0.854,10.866 -3.219,15.919c-0.931,1.979 -2.311,3.448 -4.537,3.479c-2.873,0.041 -5.765,-0.139 -8.623,-0.438c-1.679,-0.175 -2.708,-1.465 -2.878,-3.088c-0.182,-1.71 -0.188,-3.475 0.036,-5.175c0.229,-1.739 1.553,-2.833 3.303,-2.997c1.226,-0.113 2.469,-0.021 3.756,-0.021c0,1.113 0,2.137 0,3.233c-0.539,0.029 -0.985,0.063 -1.437,0.081c-1.065,0.041 -1.888,0.297 -1.864,1.637c0.023,1.444 0.342,1.89 1.832,1.95c1.33,0.058 2.67,0.06 3.994,-0.04c1.204,-0.086 1.967,-0.787 1.943,-2.061c-0.029,-1.553 -0.038,-3.119 -0.26,-4.653c-0.266,-1.878 -1.36,-2.723 -3.245,-2.924c-1.413,-0.151 -2.826,-0.333 -4.222,-0.608c-2.496,-0.488 -3.4,-1.726 -3.644,-4.462zm7.617,-5.053c1.564,0.193 3.033,0.373 4.504,0.553c0.205,-1.724 -0.439,-2.752 -1.9,-2.945c-1.507,-0.196 -2.357,0.584 -2.604,2.392z" fill="#FFFFFF" id="svg_4"/>
    </g>
   </g>
  </g>
  <path d="m15.643,19.442c2.106,-2.203 4.545,-4.749 7.033,-7.352c0,2.136 -0.037,4.117 0.016,6.094c0.025,0.945 -0.264,1.308 -1.257,1.277c-2.081,-0.065 -4.17,-0.019 -5.792,-0.019z" fill="#FFFFFF" id="svg_5"/>
 </g>
</svg>