<svg width="67" height="67" xmlns="http://www.w3.org/2000/svg" xmlns:xlink="http://www.w3.org/1999/xlink">
 <linearGradient y2="1.00001" x2="0.49999" y1="0" x1="0.49999" id="SVGID_1_">
  <stop stop-color="#A6E6FB" offset="0"/>
  <stop stop-color="#A6E6FB" offset="1"/>
 </linearGradient>
 <linearGradient gradientTransform="matrix(12.75 0 0 -12.75 3760.5 3170)" y2="5.70973" x2="-7.69953" y1="5.78743" x1="-7.69953" id="SVGID_2_">
  <stop stop-color="#3186C2" offset="0"/>
  <stop stop-color="#1D649C" offset="1"/>
 </linearGradient>
 <g>
  <title>Foursquare</title>
  <rect id="svg_6" height="67" width="67" fill="url(#SVGID_1_)"/>
  <path id="svg_7" d="m52,32.552c1.256,1.35 1.246,3.442 -0.027,4.777l-15.504,16.288c-0.657,0.689 -1.568,1.079 -2.523,1.079c-0.001,0 -0.002,0 -0.002,0c-0.956,-0.001 -1.867,-0.394 -2.525,-1.087l-16.898,-17.824c-0.647,-0.685 -0.99,-1.601 -0.953,-2.542c0.039,-0.941 0.458,-1.827 1.161,-2.454l16.896,-15.097c1.412,-1.262 3.575,-1.165 4.871,0.223" fill="url(#SVGID_2_)" opacity="0.7"/>
  <polygon id="svg_8" points="20,32.75 28.375,25.125 33.5,33.5 58.611,0 67,0 67,18.686 33.569,45.125 " fill="#FFFFFF"/>
  <g id="svg_9">
   <g id="svg_10">
    <defs>
     <path d="m66.956,58.429c0,4.608 -3.738,8.346 -8.345,8.346h-50.082c-4.61,0 -8.347,-3.739 -8.347,-8.346v-50.082c0,-4.608 3.737,-8.347 8.347,-8.347h50.083c4.608,0 8.345,3.739 8.345,8.347v50.082l-0.001,0z" id="SVGID_3_"/>
    </defs>
    <clipPath id="SVGID_4_">
     <use id="svg_11" xlink:href="#SVGID_3_"/>
    </clipPath>
   </g>
   <g id="svg_12">
    <defs>
     <path d="m66.956,58.429c0,4.608 -3.738,8.346 -8.345,8.346h-50.082c-4.61,0 -8.347,-3.739 -8.347,-8.346v-50.082c0,-4.608 3.737,-8.347 8.347,-8.347h50.083c4.608,0 8.345,3.739 8.345,8.347v50.082l-0.001,0z" id="SVGID_5_"/>
    </defs>
    <clipPath id="SVGID_6_">
     <use id="svg_13" xlink:href="#SVGID_5_"/>
    </clipPath>
   </g>
   <g id="svg_14">
    <defs>
     <path d="m66.956,8.347v50.082c0,4.608 -3.738,8.346 -8.345,8.346h-50.082c-4.61,0 -8.347,-3.739 -8.347,-8.346v-50.082c0,-4.608 3.737,-8.347 8.347,-8.347h50.083" id="SVGID_7_"/>
    </defs>
    <clipPath id="SVGID_8_">
     <use id="svg_15" xlink:href="#SVGID_7_"/>
    </clipPath>
    <linearGradient gradientTransform="matrix(12.75 0 0 -12.75 3760.5 3170)" y2="10.24914" x2="-13.24407" y1="10.32759" x1="-13.24407" id="SVGID_9_">
     <stop stop-color="#D5EA8D" offset="0"/>
     <stop stop-color="#A5C82D" offset="1"/>
    </linearGradient>
    <circle id="svg_16" r="11.352" cy="24.473" cx="18.56" fill="url(#SVGID_9_)" clip-path="url(#SVGID_8_)"/>
   </g>
   <g id="svg_17">
    <path id="svg_18" d="m66.956,8.347v50.082h-66.774v-50.082c0,-4.608 3.737,-8.347 8.347,-8.347h50.083l-25.112,33.5l-3.25,-5.125" fill="none"/>
    <path id="svg_19" d="m67,19.047l-32.87,27.22c-0.188,0.162 -0.426,0.243 -0.662,0.243c-0.234,0 -0.469,-0.079 -0.662,-0.235l-10.818,-8.846c-1.129,0.304 -2.294,0.458 -3.473,0.458c-7.348,0 -13.325,-5.979 -13.325,-13.325c0,-7.347 5.978,-13.325 13.325,-13.325c7.347,0 13.324,5.978 13.324,13.325c0,1.276 -0.179,2.535 -0.535,3.747l2.206,3.831l23.448,-32.14h2.604l-25.311,34.672c-0.208,0.284 -0.535,0.451 -0.9,0.428c-0.353,-0.02 -0.674,-0.215 -0.85,-0.523l-3.193,-5.544c-0.104,-0.183 -0.151,-0.391 -0.137,-0.603l0.021,-0.275c0.006,-0.08 0.021,-0.158 0.045,-0.233c0.34,-1.083 0.511,-2.215 0.511,-3.361c0,-6.196 -5.04,-11.235 -11.235,-11.235c-6.194,0 -11.234,5.041 -11.234,11.235c0,6.194 5.041,11.235 11.234,11.235c1.07,0 2.126,-0.149 3.146,-0.445c0.374,-0.217 0.837,-0.204 1.175,0.072l10.627,8.687l33.539,-27.61" fill="#236EB4"/>
   </g>
  </g>
 </g>
</svg>